<?xml version="1.0" encoding="UTF-8" standalone="no"?>
<!-- Created with Inkscape (http://www.inkscape.org/) -->

<svg
   xmlns:dc="http://purl.org/dc/elements/1.1/"
   xmlns:cc="http://creativecommons.org/ns#"
   xmlns:rdf="http://www.w3.org/1999/02/22-rdf-syntax-ns#"
   xmlns:svg="http://www.w3.org/2000/svg"
   xmlns="http://www.w3.org/2000/svg"
   xmlns:sodipodi="http://sodipodi.sourceforge.net/DTD/sodipodi-0.dtd"
   xmlns:inkscape="http://www.inkscape.org/namespaces/inkscape"
   width="250"
   height="55.360001"
   id="svg3828"
   version="1.1"
   inkscape:version="0.48.3.1 r9886"
   sodipodi:docname="cleverinsight.svg">
  <defs
     id="defs3830" />
  <sodipodi:namedview
     id="base"
     pagecolor="#ffffff"
     bordercolor="#666666"
     borderopacity="1.0"
     inkscape:pageopacity="0.0"
     inkscape:pageshadow="2"
     inkscape:zoom="0.64380846"
     inkscape:cx="403.49424"
     inkscape:cy="-283.95688"
     inkscape:document-units="px"
     inkscape:current-layer="layer1"
     showgrid="false"
     showguides="true"
     inkscape:guide-bbox="true"
     inkscape:window-width="1280"
     inkscape:window-height="724"
     inkscape:window-x="0"
     inkscape:window-y="24"
     inkscape:window-maximized="1">
    <sodipodi:guide
       orientation="0,1"
       position="114.44758,15.524435"
       id="guide4452" />
  </sodipodi:namedview>
  <metadata
     id="metadata3833">
    <rdf:RDF>
      <cc:Work
         rdf:about="">
        <dc:format>image/svg+xml</dc:format>
        <dc:type
           rdf:resource="http://purl.org/dc/dcmitype/StillImage" />
        <dc:title></dc:title>
      </cc:Work>
    </rdf:RDF>
  </metadata>
  <g
     inkscape:label="Layer 1"
     inkscape:groupmode="layer"
     id="layer1"
     transform="translate(0,-997.00218)">
    <g
       style="font-size:46.62882232999999843px;font-style:normal;font-variant:normal;font-weight:bold;font-stretch:normal;line-height:125%;letter-spacing:0px;word-spacing:0px;fill:#3f6bbe;fill-opacity:1;stroke:none;font-family:Aller;-inkscape-font-specification:Proxima Nova Bold"
       id="text3947-2-3"
       inkscape:export-filename="/home/bastin/Desktop/text3890.png"
       inkscape:export-xdpi="118.05"
       inkscape:export-ydpi="118.05">
      <path
         d="m 22.948214,1037.3189 c -4.725068,0 -8.672971,-1.4921 -11.843721,-4.4763 -3.1396774,-3.0153 -4.7095128,-6.8855 -4.7095113,-11.6106 -1.5e-6,-4.725 1.5698339,-8.5797 4.7095113,-11.5639 3.17075,-3.0153 7.118653,-4.523 11.843721,-4.523 5.813036,0 10.149512,2.5335 13.009441,7.6005 l -5.688716,2.7977 c -0.683914,-1.3056 -1.694205,-2.3781 -3.030874,-3.2174 -1.305628,-0.8704 -2.735577,-1.3056 -4.289851,-1.3056 -2.828831,0 -5.16027,0.9637 -6.994324,2.891 -1.834076,1.9273 -2.751109,4.3676 -2.7511,7.3207 -9e-6,2.9532 0.917024,5.3934 2.7511,7.3207 1.834054,1.9274 4.165493,2.891 6.994324,2.891 1.554274,0 2.984223,-0.4196 4.289851,-1.259 1.336669,-0.8393 2.34696,-1.9273 3.030874,-3.264 l 5.688716,2.7511 c -2.953187,5.0981 -7.289663,7.6471 -13.009441,7.6471"
         style="fill:#3f6bbe;fill-opacity:1"
         id="path3917" />
      <path
         d="m 43.255067,1036.7594 -5.92186,0 0,-31.1014 5.92186,0 0,31.1014"
         style="fill:#3f6bbe;fill-opacity:1"
         id="path3919" />
      <path
         d="m 57.28597,1037.3189 c -3.481629,0 -6.35707,-1.088 -8.626332,-3.264 -2.269272,-2.176 -3.403905,-5.0359 -3.403904,-8.5797 -10e-7,-3.3262 1.088003,-6.1239 3.264018,-8.3932 2.20709,-2.2692 5.004817,-3.4038 8.393188,-3.4039 3.357258,10e-5 6.07727,1.1502 8.160044,3.4506 2.08273,2.2693 3.124106,5.2535 3.124131,8.9527 l 0,1.3056 -16.739748,0 c 0.186508,1.4921 0.854854,2.7356 2.00504,3.7303 1.150167,0.9948 2.642287,1.4921 4.476367,1.4921 0.994733,0 2.067195,-0.202 3.217389,-0.6061 1.181244,-0.4042 2.11382,-0.9482 2.797729,-1.632 l 2.611214,3.8235 c -2.26929,2.0828 -5.362332,3.1241 -9.279136,3.1241 m 5.1758,-13.942 c -0.09328,-1.2745 -0.606193,-2.4247 -1.538752,-3.4505 -0.901506,-1.0258 -2.238198,-1.5387 -4.010078,-1.5388 -1.678649,10e-5 -2.984255,0.513 -3.916821,1.5388 -0.932585,0.9948 -1.476588,2.1449 -1.632009,3.4505 l 11.09766,0"
         style="fill:#3f6bbe;fill-opacity:1"
         id="path3921" />
      <path
         d="m 82.220008,1036.7594 -6.388149,0 -9.045991,-22.5217 6.341519,0 5.875232,15.6673 5.875232,-15.6673 6.388148,0 -9.045991,22.5217"
         style="fill:#3f6bbe;fill-opacity:1"
         id="path3923" />
      <path
         d="m 102.06859,1037.3189 c -3.481633,0 -6.357074,-1.088 -8.626336,-3.264 -2.269272,-2.176 -3.403906,-5.0359 -3.403904,-8.5797 -2e-6,-3.3262 1.088003,-6.1239 3.264017,-8.3932 2.207091,-2.2692 5.004818,-3.4038 8.393193,-3.4039 3.35725,10e-5 6.07727,1.1502 8.16004,3.4506 2.08273,2.2693 3.12411,5.2535 3.12413,8.9527 l 0,1.3056 -16.739747,0 c 0.186508,1.4921 0.854853,2.7356 2.005039,3.7303 1.150167,0.9948 2.642288,1.4921 4.476368,1.4921 0.99473,0 2.06719,-0.202 3.21739,-0.6061 1.18124,-0.4042 2.11382,-0.9482 2.79773,-1.632 l 2.61121,3.8235 c -2.26929,2.0828 -5.36233,3.1241 -9.27913,3.1241 m 5.1758,-13.942 c -0.0933,-1.2745 -0.6062,-2.4247 -1.53876,-3.4505 -0.9015,-1.0258 -2.23819,-1.5387 -4.01007,-1.5388 -1.67865,10e-5 -2.984259,0.513 -3.916826,1.5388 -0.932584,0.9948 -1.476587,2.1449 -1.632009,3.4505 l 11.097665,0"
         style="fill:#3f6bbe;fill-opacity:1"
         id="path3925" />
      <path
         d="m 120.70773,1036.7594 -5.92186,0 0,-22.5217 5.92186,0 0,3.0775 c 0.83931,-1.0569 1.91177,-1.9273 3.21739,-2.6112 1.30559,-0.6839 2.62674,-1.0258 3.96345,-1.0259 l 0,5.782 c -0.40413,-0.093 -0.94814,-0.1399 -1.63201,-0.1399 -0.99476,0 -2.05168,0.2487 -3.17076,0.7461 -1.1191,0.4974 -1.91179,1.1035 -2.37807,1.8185 l 0,14.8746"
         style="fill:#3f6bbe;fill-opacity:1"
         id="path3927" />
    </g>
    <g
       transform="translate(-83.897507,1046.5745)"
       style="font-size:40px;font-style:normal;font-weight:normal;line-height:125%;letter-spacing:0px;word-spacing:0px;fill:#4d4d4d;fill-opacity:1;stroke:none;font-family:Sans"
       id="text3890"
       inkscape:export-xdpi="118.05"
       inkscape:export-ydpi="118.05">
      <path
         d="m 219.68792,-9.7367325 -3.32,0 0,-26.6799995 3.32,0 0,26.6799995"
         style="font-variant:normal;font-stretch:normal;font-family:Proxima Nova;-inkscape-font-specification:Proxima Nova"
         id="path4438"
         inkscape:connector-curvature="0" />
      <path
         d="m 241.81917,-9.7367325 -3,0 0,-12.6399995 c -1e-5,-1.626653 -0.37334,-2.773318 -1.12,-3.44 -0.74668,-0.693317 -1.81334,-1.039983 -3.2,-1.04 -1.12001,1.7e-5 -2.21334,0.29335 -3.28,0.88 -1.04,0.586682 -1.85334,1.293348 -2.44,2.12 l 0,14.1199995 -3,0 0,-19.3199995 3,0 0,2.8 c 0.74666,-0.879983 1.74666,-1.639982 3,-2.28 1.25333,-0.666648 2.54666,-0.999981 3.88,-1 4.10665,1.9e-5 6.15999,2.080017 6.16,6.24 l 0,13.5599995"
         style="font-variant:normal;font-stretch:normal;font-family:Proxima Nova;-inkscape-font-specification:Proxima Nova"
         id="path4440"
         inkscape:connector-curvature="0" />
      <path
         d="m 253.93042,-9.2567325 c -3.28,-5e-7 -5.88,-1.0133325 -7.8,-3.0399995 l 1.56,-2.16 c 0.66667,0.773337 1.57333,1.426669 2.72,1.96 1.17333,0.533335 2.38666,0.800001 3.64,0.8 1.43999,1e-6 2.55999,-0.306665 3.36,-0.92 0.79999,-0.61333 1.19999,-1.41333 1.2,-2.4 -10e-6,-0.853328 -0.41334,-1.519994 -1.24,-2 -0.82667,-0.506659 -1.82667,-0.879992 -3,-1.12 -1.14667,-0.266658 -2.30667,-0.559992 -3.48,-0.88 -1.17333,-0.346658 -2.17333,-0.91999 -3,-1.72 -0.82666,-0.826655 -1.24,-1.906654 -1.24,-3.24 0,-1.573318 0.64,-2.893317 1.92,-3.96 1.30667,-1.066648 3.06666,-1.599981 5.28,-1.6 2.90666,1.9e-5 5.29332,0.933352 7.16,2.8 l -1.4,2.08 c -1.36001,-1.626651 -3.28001,-2.439983 -5.76,-2.44 -1.30667,1.7e-5 -2.34667,0.29335 -3.12,0.88 -0.77333,0.560015 -1.16,1.280015 -1.16,2.16 0,0.773346 0.41333,1.386679 1.24,1.84 0.82666,0.426678 1.81333,0.773345 2.96,1.04 1.17333,0.240011 2.34666,0.533344 3.52,0.88 1.17332,0.346676 2.17332,0.960009 3,1.84 0.82666,0.853341 1.23999,1.97334 1.24,3.36 -10e-6,1.70667 -0.66668,3.106668 -2,4.2 -1.33334,1.0933329 -3.20001,1.639999 -5.6,1.6399995"
         style="font-variant:normal;font-stretch:normal;font-family:Proxima Nova;-inkscape-font-specification:Proxima Nova"
         id="path4442"
         inkscape:connector-curvature="0" />
      <path
         d="m 267.88417,-31.816732 c -0.53333,2.2e-5 -1,-0.186645 -1.4,-0.56 -0.4,-0.399977 -0.6,-0.879977 -0.6,-1.44 0,-0.559976 0.2,-1.039975 0.6,-1.44 0.4,-0.399975 0.86667,-0.599974 1.4,-0.6 0.56,2.6e-5 1.04,0.200025 1.44,0.6 0.4,0.400025 0.6,0.880024 0.6,1.44 0,0.560023 -0.2,1.040023 -0.6,1.44 -0.4,0.373355 -0.88,0.560022 -1.44,0.56 m 1.52,22.0799995 -3,0 0,-19.3199995 3,0 0,19.3199995"
         style="font-variant:normal;font-stretch:normal;font-family:Proxima Nova;-inkscape-font-specification:Proxima Nova"
         id="path4444"
         inkscape:connector-curvature="0" />
      <path
         d="m 283.14855,-1.8967325 c -1.70668,-7.8e-6 -3.16001,-0.2133409 -4.36,-0.64 -1.20001,-0.4000068 -2.34667,-1.1466727 -3.44,-2.24 l 1.52,-2.24 c 1.46666,1.7599955 3.55999,2.6399947 6.28,2.64 1.78665,-5.3e-6 3.26665,-0.4800049 4.44,-1.44 1.17332,-0.9333363 1.75998,-2.3866682 1.76,-4.3599995 l 0,-2.76 c -0.72002,1.013335 -1.65335,1.840001 -2.8,2.48 -1.14668,0.6399996 -2.37335,0.9599993 -3.68,0.9599995 -2.56001,-2e-7 -4.64001,-0.8933325 -6.24,-2.6799995 -1.57334,-1.81333 -2.36,-4.253327 -2.36,-7.32 0,-3.066654 0.78666,-5.506652 2.36,-7.32 1.59999,-1.813315 3.67999,-2.719981 6.24,-2.72 2.63999,1.9e-5 4.79998,1.133352 6.48,3.4 l 0,-2.92 3,0 0,18.76 c -2e-5,2.9599971 -0.86669,5.0933283 -2.6,6.3999995 -1.73335,1.3333262 -3.93335,1.9999922 -6.6,2 m 0.44,-10.2399995 c 1.14665,2e-6 2.25332,-0.306664 3.32,-0.92 1.09332,-0.61333 1.90665,-1.359996 2.44,-2.24 l 0,-8.44 c -0.53335,-0.879986 -1.33335,-1.613318 -2.4,-2.2 -1.06668,-0.613317 -2.18668,-0.919983 -3.36,-0.92 -1.92001,1.7e-5 -3.44001,0.680016 -4.56,2.04 -1.09334,1.360013 -1.64001,3.133345 -1.64,5.32 -1e-5,2.160007 0.55999,3.933339 1.68,5.32 1.11999,1.360003 2.62666,2.040002 4.52,2.04"
         style="font-variant:normal;font-stretch:normal;font-family:Proxima Nova;-inkscape-font-specification:Proxima Nova"
         id="path4446"
         inkscape:connector-curvature="0" />
      <path
         d="m 314.4373,-9.7367325 -3,0 0,-12.7199995 c -2e-5,-1.599986 -0.37335,-2.733318 -1.12,-3.4 -0.74668,-0.66665 -1.82668,-0.999983 -3.24,-1 -1.09334,1.7e-5 -2.17334,0.29335 -3.24,0.88 -1.04001,0.586682 -1.86667,1.293348 -2.48,2.12 l 0,14.1199995 -3,0 0,-26.6799995 3,0 0,10.16 c 0.74666,-0.879983 1.74666,-1.639982 3,-2.28 1.25332,-0.666648 2.55999,-0.999981 3.92,-1 4.10665,1.9e-5 6.15998,2.053351 6.16,6.16 l 0,13.6399995"
         style="font-variant:normal;font-stretch:normal;font-family:Proxima Nova;-inkscape-font-specification:Proxima Nova"
         id="path4448"
         inkscape:connector-curvature="0" />
      <path
         d="m 325.34667,-9.2567325 c -1.41333,-5e-7 -2.48,-0.3866667 -3.2,-1.1599995 -0.72,-0.773332 -1.08,-1.893331 -1.08,-3.36 l 0,-12.64 -3.2,0 0,-2.64 3.2,0 0,-5.28 3,0 0,5.28 3.92,0 0,2.64 -3.92,0 0,12 c 0,0.74667 0.16,1.34667 0.48,1.8 0.34666,0.453335 0.84,0.680002 1.48,0.68 0.88,2e-6 1.55999,-0.266665 2.04,-0.8 l 0.88,2.24 c -0.88001,0.8266661 -2.08,1.239999 -3.6,1.2399995"
         style="font-variant:normal;font-stretch:normal;font-family:Proxima Nova;-inkscape-font-specification:Proxima Nova"
         id="path4450"
         inkscape:connector-curvature="0" />
    </g>
  </g>
</svg>
